<svg xmlns="http://www.w3.org/2000/svg" viewBox="0 0 345.877 72" width="345.877" height="72" role="img" aria-labelledby="t">
  <title id="t">Waybill Data Systems</title>
  <desc>Waybill wordmark, DejaVu Sans Mono Bold converted to outlines.</desc>
  <path fill="#101418" fill-rule="nonzero" d="M8 8H17.68L21.69 49.11L26.53 22.52H35.72L41.34 49.11L44.5 8H54.25L47.8 64H37.48L31.11 34.59L25.14 64H14.9ZM78.89 18.13 73.68 41.04H84.14ZM72.14 8H85.68L100.79 64H89.73L86.28 50.16H71.46L68.09 64H57.02ZM103.87 8H115.8L126.67 30.51L137.59 8H149.52L132.22 41.95V64H121.16V41.95ZM166.73 38.57V55.15H174.08Q179.37 55.15 181.49 53.35Q183.61 51.55 183.61 47.08Q183.61 42.55 181.4 40.56Q179.18 38.57 174.08 38.57ZM166.73 16.74V29.75H174.08Q178.28 29.75 180.07 28.25Q181.85 26.75 181.85 23.3Q181.85 19.85 180.03 18.3Q178.21 16.74 174.08 16.74ZM156.04 7.92H174.08Q183.42 7.92 188.13 11.47Q192.84 15.01 192.84 22.07Q192.84 27.47 190.06 30.51Q187.29 33.54 181.92 34.03Q188.34 34.67 191.58 38.34Q194.82 42.02 194.82 48.62Q194.82 56.72 189.95 60.36Q185.07 64 174.08 64H156.04ZM205.59 17.75V8H238.93V17.75H227.79V54.25H238.93V64H205.59V54.25H216.73V17.75ZM255.36 64V8H266.43V54.25H290.09V64ZM303.14 64V8H314.21V54.25H337.88V64Z"/>
</svg>
